<svg width="800" height="526" viewBox="0 0 800 526" fill="none" xmlns="http://www.w3.org/2000/svg">
<path d="M121.036 146.503C131.14 102.316 206.518 113.701 244.378 124.207C247.747 125.149 250.981 126.091 254.143 127.036C251.854 137.341 249.562 147.649 245.386 157.348C238.111 174.325 227.131 189.952 210.424 202.549C206.449 202.549 202.405 202.549 198.502 202.48C172.702 202.279 154.447 204.907 141.913 210.7C141.916 210.703 109.921 195.208 121.036 146.503V146.503Z" fill="#F7D3BC"/>
<path d="M169.942 222.961C186.178 217.774 199.516 210.838 210.43 202.552C227.137 189.955 238.117 174.328 245.392 157.351C249.565 147.652 251.86 137.344 254.149 127.039C254.689 124.612 255.229 122.122 255.769 119.695C266.95 71.5297 346.438 68.5027 346.438 68.5027C375.472 103.936 422.692 122.527 451.927 137.212C476.653 149.539 486.688 171.163 490.594 189.487C566.782 192.451 663.379 176.014 672.541 181.807C681.841 187.735 686.014 374.668 672.541 378.844C659.068 383.086 483.79 358.03 483.79 358.03C454.354 446.812 322.861 445.129 297.196 443.983C309.793 439.066 320.569 433.678 327.778 429.031C354.925 411.313 354.25 382.681 346.708 370.087C339.094 357.421 317.674 354.931 305.278 356.14C325.891 343.882 333.706 329.194 330.673 310.264C325.621 278.806 299.08 279.28 287.764 279.817C306.22 272.14 316.123 261.157 315.112 242.431C314.503 230.509 309.25 222.154 300.895 216.295C297.325 239.263 286.348 265.537 256.234 276.112C185.839 300.769 169.942 222.961 169.942 222.961V222.961Z" fill="#F7D3BC"/>
<path d="M287.761 279.817C299.077 279.28 325.615 278.806 330.67 310.264C333.703 329.194 325.888 343.879 305.275 356.14H305.209C291.4 364.36 271.864 371.5 246.064 378.103C219.118 384.973 197.56 388.003 180.856 386.455C157.549 384.367 143.602 373.321 137.473 351.562C126.895 314.107 155.524 297.67 155.524 297.67C169.471 300.634 188.266 300.769 213.391 296.593C244.579 291.472 270.04 287.164 287.692 279.817H287.761V279.817Z" fill="#F7D3BC"/>
<path d="M141.916 210.703C154.447 204.91 172.702 202.282 198.505 202.483C202.408 202.552 206.452 202.552 210.427 202.552C199.513 210.838 186.175 217.774 169.939 222.961C169.939 222.961 185.836 300.769 256.231 276.112C286.345 265.537 297.322 239.263 300.892 216.295C309.247 222.154 314.5 230.509 315.109 242.431C316.12 261.157 306.214 272.14 287.761 279.817H287.692C270.043 287.161 244.579 291.472 213.391 296.593C188.266 300.769 169.471 300.634 155.524 297.67C126.223 291.403 118.474 272.206 118.474 252.199C118.474 232.258 124.81 218.584 141.916 210.703V210.703Z" fill="#F7D3BC"/>
<path d="M180.787 386.857L180.856 386.452C197.56 388 219.118 384.973 246.064 378.1C271.861 371.497 291.4 364.357 305.209 356.137H305.275C317.671 354.925 339.091 357.415 346.705 370.084C354.247 382.678 354.922 411.307 327.775 429.028C320.566 433.675 309.79 439.063 297.193 443.98C262.366 457.387 213.73 466.951 188.401 447.148C153.841 420.202 180.787 386.857 180.787 386.857V386.857Z" fill="#F7D3BC"/>
<path d="M397.06 405.874C378.031 410.908 360.526 413.059 344.5 413.026C340.795 419.059 335.452 424.834 327.892 429.748C320.686 434.464 309.907 439.852 297.31 444.709C322.975 445.918 454.468 447.538 483.973 358.822C483.973 358.822 659.251 383.812 672.724 379.636C676.66 378.4 679.075 361.507 680.305 338.14C671.797 343.777 660.547 346.837 645.739 345.817C572.203 340.765 505.399 322.798 505.399 322.798L490.804 305.956C490.804 305.956 475.651 385.108 397.06 405.874V405.874Z" fill="#EFAE8D"/>
<path d="M320.203 357.253C345.97 430.741 235.486 448.324 191.239 449.701C217.252 466.948 263.728 457.726 297.31 444.709C309.907 439.852 320.686 434.467 327.892 429.748C355.042 412.105 354.433 383.476 346.822 370.804C341.836 362.485 330.742 358.594 320.203 357.253V357.253Z" fill="#EFAE8D"/>
<path d="M306.298 281.977C315.334 375.484 185.569 372.241 147.61 372.01C155.26 380.95 166.249 385.858 181.042 387.181C197.749 388.726 219.301 385.702 246.181 378.826C271.981 372.229 291.517 365.149 305.326 356.932C326.008 344.671 333.889 329.986 330.856 311.059C327.817 292.042 316.942 284.707 306.298 281.977V281.977Z" fill="#EFAE8D"/>
<path d="M315.295 243.223C314.452 227.995 306.166 218.671 293.467 212.857C294.601 281.221 175.657 286.57 130.741 286.135C136.417 291.667 144.466 295.99 155.713 298.39C169.591 301.357 188.386 301.495 213.511 297.319C244.699 292.195 270.166 287.95 287.815 280.609C306.34 272.998 316.309 262.018 315.295 243.223Z" fill="#EFAE8D"/>
<path d="M359.053 126.919C418.837 182.494 451.345 154.843 483.343 234.7C483.343 234.7 454.435 271.474 489.517 299.821C489.517 299.821 480.259 275.395 494.572 261.079C508.888 246.763 505.516 215.332 505.516 215.332C505.516 215.332 571.477 215.614 622 212.248C652.714 210.202 669.235 210.517 680.308 216.064C678.814 197.245 676.792 184.108 674.437 182.605C665.278 176.812 568.678 193.249 492.49 190.285C488.581 171.961 478.543 150.337 453.823 138.01C424.519 123.325 377.365 104.734 348.334 69.2978C348.334 69.2978 336.166 69.7508 320.689 73.1888C328.732 91.1678 340.831 109.981 359.053 126.919V126.919Z" fill="#EFAE8D"/>
<path d="M178.684 243.238C178.684 243.238 276.793 286.903 301.156 167.332C301.156 167.332 325.285 268.735 246.367 281.716C195.844 290.026 178.684 243.238 178.684 243.238Z" fill="#EFAE8D"/>
<path d="M294.4 170.134C306.046 219.091 350.548 239.668 396.718 247.321C403.078 248.374 405.814 238.639 399.403 237.577C356.773 230.512 314.98 213.004 304.144 167.446C302.638 161.125 292.891 163.801 294.4 170.134V170.134Z" fill="black"/>
<path d="M296.101 176.875C299.278 196.435 297.748 218.785 289.879 236.926C273.076 275.674 219.151 290.773 190.846 255.646C185.938 249.556 175.963 235.564 176.329 227.254C176.644 220.138 180.463 224.053 191.521 219.871C217.549 210.031 239.092 184.888 249.751 159.898C256.525 144.013 256.426 124.612 265.045 109.672C274.324 93.5887 292.624 85.1288 309.643 79.9868C318.337 77.3588 332.971 71.9498 341.98 73.8878C351.745 75.9908 361.816 91.5398 371.35 98.6498C397.888 118.435 430.123 127.486 457.018 145.948C481.258 162.589 490.78 193.939 487.312 222.244C486.523 228.682 496.636 228.625 497.416 222.244C500.869 194.044 491.782 161.758 469.768 142.972C451.636 127.501 426.406 120.043 405.73 108.556C390.727 100.219 376.126 90.7868 363.448 79.1498C357.751 73.9208 353.683 66.0638 346.417 63.4778C326.554 56.4158 284.806 76.3057 270.301 88.4257C254.098 101.962 251.881 117.937 246.544 137.392C235.312 178.327 208.255 204.055 168.613 218.074C165.931 219.022 164.467 221.455 165.085 224.29C174.268 266.413 209.764 295.312 253.312 282.25C299.617 268.36 312.886 217.534 305.845 174.19C304.807 167.785 295.066 170.503 296.101 176.875V176.875Z" fill="black"/>
<path d="M297.166 449.005C375.223 452.248 475.975 430.723 493.03 341.467C494.245 335.113 484.507 332.392 483.286 338.782C467.104 423.472 370.672 441.955 297.166 438.901C290.662 438.631 290.677 448.738 297.166 449.005V449.005Z" fill="black"/>
<path d="M482.467 362.917C532.102 369.988 581.854 376.921 631.75 381.88C642.628 382.96 666.409 389.656 676.048 382.615C685.987 375.352 684.535 349.099 685.129 338.986C687.049 306.367 686.545 273.46 685.033 240.841C684.352 226.162 687.655 195.586 678.724 182.512C670.066 169.834 648.451 176.011 635.182 177.064C586.186 180.949 537.388 185.947 488.158 184.348C481.654 184.138 481.66 194.242 488.158 194.452C528.952 195.778 569.566 192.817 610.186 189.319C624.658 188.074 662.872 178.624 670.477 190.906C678.751 204.265 674.926 238.654 675.439 253.837C676.327 280.264 676.576 306.802 675.316 333.22C674.671 346.774 676.804 369.061 665.476 374.266C652.87 380.059 620.062 370.582 606.922 369.073C566.26 364.399 525.676 358.948 485.155 353.176C478.792 352.27 476.044 362.002 482.467 362.917V362.917Z" fill="black"/>
<path d="M210.415 197.527C176.926 197.323 125.533 195.028 115.171 236.08C108.736 261.571 117.877 288.364 142.699 299.005C182.308 315.982 250.543 300.916 288.259 285.016C319.069 272.029 333.205 237.418 304.468 212.71C299.56 208.489 292.381 215.605 297.322 219.856C338.647 255.391 280.699 278.581 252.874 284.455C221.557 291.064 182.692 301.675 151.171 291.337C128.773 283.99 120.196 263.161 124.654 241.006C132.214 203.416 181.009 207.454 210.418 207.634C216.919 207.67 216.925 197.566 210.415 197.527V197.527Z" fill="black"/>
<path d="M153.001 293.299C128.686 308.446 124.282 342.013 137.773 366.01C157.363 400.849 203.884 392.884 236.362 385.612C268.804 378.349 328.117 365.944 335.587 325.57C341.563 293.278 317.488 273.742 287.698 274.789C281.215 275.017 281.185 285.124 287.698 284.893C320.632 283.735 338.557 317.059 315.607 342.094C296.539 362.893 259.951 370.09 233.677 375.868C209.557 381.172 172.381 389.683 152.395 369.241C134.746 351.19 136.012 315.784 158.101 302.023C163.609 298.594 158.542 289.849 153.001 293.299Z" fill="black"/>
<path d="M144.49 206.341C113.746 190.423 117.145 136.186 148.753 124.168C180.784 111.988 221.299 122.695 252.775 131.92C259.027 133.753 261.697 124.003 255.46 122.176C219.535 111.646 151.9 93.5978 123.736 129.328C104.971 153.133 111.187 200.461 139.393 215.068C145.156 218.05 150.274 209.335 144.49 206.341V206.341Z" fill="black"/>
<path d="M176.449 384.283C160.282 405.691 163.543 434.047 184.816 450.691C212.842 472.615 256.576 462.97 287.191 452.848C315.715 443.416 351.559 428.677 355.816 394.699C359.857 362.446 333.811 349.912 305.191 351.118C298.711 351.391 298.678 361.498 305.191 361.222C322.804 360.481 340.015 368.302 346.135 387.037C351.388 403.117 332.791 420.049 320.503 427.516C304.66 437.14 285.883 443.509 267.991 447.922C247.879 452.881 222.712 457.414 202.84 448.885C176.344 437.515 168.991 410.815 185.173 389.383C189.094 384.193 180.325 379.153 176.449 384.283V384.283Z" fill="black"/>
</svg>
