<svg width="800" height="526" viewBox="0 0 800 526" fill="none" xmlns="http://www.w3.org/2000/svg">
<path d="M585.972 395.928C553.236 494.415 394.932 481.617 394.932 481.617C394.932 481.617 346.095 500.142 288.024 512.739C229.89 525.402 179.232 527.157 169.263 502.635C158.349 475.689 181.926 460.533 228.945 451.305C275.025 442.209 349.392 422.406 352.287 421.599C348.717 415.803 344.946 409.272 341.106 402.06C331.806 384.483 322.242 362.721 314.832 337.257C312.612 329.58 310.524 321.633 308.769 313.278C304.323 292.734 301.359 270.162 301.023 245.85C300.822 238.641 300.888 231.297 301.224 223.818C131.739 210.279 45.5128 198.696 54.7438 143.253C62.7598 95.2891 154.98 127.083 224.025 138.069C292.062 148.845 400.518 156.252 403.752 156.456C405.3 150.732 406.716 147.291 406.716 147.291C406.716 147.291 329.382 122.643 338.208 61.1402C348.918 -12.6958 425.241 9.19497 425.241 9.19497C406.716 115.293 505.266 150.657 554.106 175.116C578.829 187.443 588.867 209.067 592.776 227.388C669.03 230.349 765.495 213.915 774.723 219.705C783.954 225.639 788.196 412.569 774.723 416.745C761.25 420.99 585.972 395.928 585.972 395.928Z" fill="#F7D3BC"/>
<path d="M16.8868 270.228C24.4318 226.443 81.6928 234.06 140.634 239.916C199.578 245.85 300.891 245.85 300.891 245.85H301.026C301.362 270.165 304.326 292.734 308.772 313.278C308.772 313.278 259.395 323.316 166.77 326.685C74.1448 330.054 9.27581 314.013 16.8868 270.228V270.228Z" fill="#F7D3BC"/>
<path d="M184.422 357.801C245.049 351.945 314.835 337.257 314.835 337.257C322.245 362.721 331.812 384.483 341.109 402.06C341.109 402.06 280.413 420.99 223.155 430.218C165.897 439.515 82.5658 446.25 80.8828 404.421C79.1968 362.589 123.795 363.735 184.422 357.801V357.801Z" fill="#F7D3BC"/>
<path d="M338.211 61.1402C337.476 66.2702 337.386 71.1179 337.755 75.7439C341.127 55.3769 372.468 25.3321 403.953 32.6431C403.953 32.6431 398.058 108.426 457.845 164.001C517.632 219.576 550.137 191.928 582.135 271.782C582.135 271.782 553.227 308.556 588.309 336.903C588.309 336.903 579.051 312.477 593.364 298.161C607.68 283.848 604.308 252.414 604.308 252.414C604.308 252.414 670.269 252.696 720.792 249.33C752.883 247.191 769.551 247.566 780.624 253.863C779.127 234.681 777.093 221.226 774.726 219.708C765.501 213.921 669.033 230.352 592.779 227.391C588.87 209.07 578.832 187.446 554.109 175.119C505.272 150.66 406.719 115.293 425.244 9.1979C425.244 9.1949 348.921 -12.6988 338.211 61.1402V61.1402Z" fill="#EFAE8D"/>
<path d="M747.735 382.929C674.199 377.877 607.395 359.91 607.395 359.91L592.8 343.068C592.8 343.068 577.647 422.22 499.053 442.992C420.459 463.764 367.29 436.344 341.109 402.057C344.946 409.269 348.72 415.8 352.29 421.596L378.462 457.029C378.462 457.029 351.411 478.356 275.07 492.954C208.092 505.761 175.977 502.137 168.408 481.725C165.9 487.779 166.044 494.682 169.266 502.635C179.235 527.157 229.893 525.402 288.027 512.739C346.095 500.142 394.935 481.617 394.935 481.617C394.935 481.617 553.239 494.415 585.975 395.928C585.975 395.928 761.253 420.99 774.726 416.745C778.668 415.524 781.08 398.625 782.31 375.246C773.799 380.892 762.546 383.949 747.735 382.929V382.929Z" fill="#EFAE8D"/>
<path d="M330.663 380.55C330.663 380.55 153.48 449.283 81.8788 393.114C81.1348 396.516 80.7118 400.2 80.8828 404.421C82.5658 446.25 165.897 439.515 223.155 430.218C280.413 420.99 341.109 402.06 341.109 402.06C337.623 395.469 334.101 388.293 330.666 380.55H330.663V380.55Z" fill="#EFAE8D"/>
<path d="M19.5568 261.162C18.4228 263.931 17.4628 266.88 16.8868 270.228C9.27581 314.013 74.1448 330.054 166.77 326.685C259.395 323.316 308.772 313.278 308.772 313.278C306.774 304.056 305.139 294.357 303.843 284.34C253.086 298.239 76.5388 339.606 19.5568 261.162V261.162Z" fill="#EFAE8D"/>
<path d="M301.227 223.818L303.162 198.663C303.162 198.663 123.159 202.524 59.9487 170.673C81.7647 203.208 164.313 212.877 301.227 223.818V223.818Z" fill="#EFAE8D"/>
<path d="M599.559 260.13C605.076 215.073 581.235 182.553 542.214 163.746C477.246 132.435 418.332 92.1663 430.131 10.5453C430.521 7.8483 429.504 5.12124 426.603 4.32924C394.509 -4.41276 356.538 3.45602 340.686 35.151C316.89 82.731 348.435 126.267 391.293 146.412C395.103 148.203 402.012 149.37 404.967 152.028C397.8 145.584 403.059 146.577 398.898 155.154C392.826 167.673 393.633 188.178 395.442 201.351C402.726 254.367 451.077 276.948 498.861 285.21C505.221 286.311 507.954 276.573 501.546 275.466C456.75 267.72 410.25 247.353 405.018 196.839C403.368 180.912 405.675 163.569 411.609 148.638C412.653 146.01 410.442 143.205 408.081 142.422C361.428 126.984 310.377 63.4682 364.011 22.3292C373.632 14.9492 408.654 2.91904 420.618 13.275C420.633 13.29 419.214 57.1202 422.811 69.0812C435.582 111.573 472.107 138.957 509.643 158.901C533.55 171.606 563.829 179.868 578.586 204.285C588.36 220.458 591.753 241.407 589.461 260.127C588.666 266.571 598.779 266.514 599.559 260.13Z" fill="black"/>
<path d="M379.992 451.068C319.476 385.092 299.934 284.805 308.214 198.66C308.835 192.192 298.728 192.234 298.11 198.66C289.563 287.571 310.551 390.297 372.846 458.214C377.25 463.017 384.381 455.856 379.992 451.068V451.068Z" fill="black"/>
<path d="M403.791 151.395C341.373 147.138 278.271 142.467 216.609 131.694C179.793 125.262 84.6538 88.2 55.6168 128.28C34.9438 156.816 61.3558 185.238 86.7538 196.272C151.086 224.223 232.698 223.365 301.23 228.897C307.713 229.419 307.677 219.312 301.23 218.793C238.668 213.744 173.043 211.5 112.302 194.373C95.3968 189.606 72.0268 182.811 62.9668 166.014C46.8448 136.122 79.3498 122.13 104.676 122.763C161.079 124.17 217.812 143.265 274.02 149.76C317.157 154.743 360.468 158.547 403.791 161.502C410.283 161.943 410.256 151.836 403.791 151.395V151.395Z" fill="black"/>
<path d="M300.879 240.762C243.954 240.714 186.951 239.277 130.275 233.82C94.6318 230.388 3.12877 218.457 11.5438 281.703C18.1768 331.554 101.973 331.656 137.637 332.076C194.535 332.745 254.073 329.226 310.098 318.117C316.47 316.854 313.773 307.113 307.413 308.373C271.506 315.495 234.378 318.039 197.91 320.133C159.975 322.311 30.2878 337.2 21.8578 280.209C12.5158 217.047 149.778 246.303 183.621 248.043C222.657 250.053 261.795 250.836 300.882 250.869C307.38 250.872 307.392 240.768 300.879 240.762V240.762Z" fill="black"/>
<path d="M313.509 332.397C254.619 344.631 195.36 349.719 135.864 357.402C107.181 361.104 63.3028 374.802 77.6908 413.892C91.1938 450.579 154.611 443.172 183.819 440.406C237.594 435.318 290.91 422.82 342.471 406.932C348.666 405.024 346.023 395.265 339.786 397.188C304.896 407.94 269.229 416.895 233.307 423.378C200.19 429.354 115.764 448.65 91.7878 415.482C53.9188 363.096 190.248 362.514 213.216 359.529C247.722 355.047 282.126 349.218 316.197 342.141C322.557 340.818 319.863 331.077 313.509 332.397V332.397Z" fill="black"/>
<path d="M350.985 416.721C315.585 426.159 280.023 435.21 244.212 442.944C220.479 448.068 174.789 451.839 163.785 479.598C132.15 559.407 315.42 511.71 335.958 505.914C358.143 499.653 380.961 488.613 402.579 487.023C425.118 485.367 447.264 486.312 469.761 482.409C528.462 472.221 583.296 442.143 595.17 379.359C596.373 373.005 586.635 370.281 585.426 376.671C574.182 436.131 522.339 463.17 467.076 472.665C441.933 476.985 415.122 472.944 390.726 477.777C359.931 483.879 329.766 497.85 298.956 505.083C274.41 510.843 249.261 515.952 223.98 516.645C203.676 517.2 150.657 509.163 178.668 475.857C197.952 452.925 255.447 450.999 283.173 444.336C306.744 438.669 330.249 432.711 353.673 426.465C359.949 424.791 357.285 415.041 350.985 416.721V416.721Z" fill="black"/>
<path d="M584.598 400.809C634.236 407.88 683.988 414.813 733.887 419.772C744.765 420.852 768.546 427.551 778.185 420.507C788.124 413.244 786.672 386.991 787.266 376.878C789.186 344.259 788.682 311.352 787.17 278.733C786.489 264.054 789.792 233.478 780.861 220.404C772.203 207.726 750.588 213.903 737.319 214.953C688.323 218.838 639.525 223.836 590.295 222.237C583.791 222.027 583.797 232.131 590.295 232.341C631.089 233.664 671.703 230.706 712.323 227.208C726.795 225.96 765.009 216.513 772.614 228.795C780.888 242.154 777.063 276.543 777.576 291.726C778.464 318.153 778.713 344.691 777.453 371.109C776.808 384.663 778.941 406.95 767.613 412.155C755.007 417.948 722.199 408.471 709.056 406.962C668.391 402.291 627.804 396.837 587.283 391.065C580.926 390.159 578.178 399.894 584.598 400.809V400.809Z" fill="black"/>
</svg>
