<svg width="800" height="526" viewBox="0 0 800 526" fill="none" xmlns="http://www.w3.org/2000/svg">
<path d="M300.987 210.425C292.632 215.276 283.137 219.521 272.289 222.953C272.289 222.953 280.035 260.945 308.733 275.429V275.498C308.733 275.498 259.356 285.533 166.731 288.902C74.1058 292.271 9.30283 276.308 16.8478 232.523C24.4588 188.738 81.7168 196.28 140.661 202.211C199.605 208.07 300.852 208.07 300.852 208.07H300.918C300.918 208.814 300.987 209.618 300.987 210.362V210.425V210.425Z" fill="#F7D3BC"/>
<path d="M300.987 210.359C300.987 209.615 300.918 208.811 300.918 208.067C300.783 200.927 300.918 193.586 301.188 186.11C131.835 172.568 45.6808 160.913 54.9778 105.545C62.9938 57.5147 155.148 89.3777 224.196 100.289C265.221 106.826 320.793 112.079 359.325 115.31C358.854 116.726 358.449 118.208 358.113 119.69C355.215 132.353 352.926 145.286 347.739 157.346C338.91 178.022 324.429 196.751 300.987 210.359V210.359Z" fill="#F7D3BC"/>
<path d="M390.039 279.812C401.358 279.272 427.968 278.735 433.02 310.259C436.05 329.186 428.169 343.871 407.556 356.201C393.747 364.352 374.211 371.492 348.411 378.095C321.465 384.965 299.907 387.995 283.203 386.447C259.896 384.362 245.952 373.313 239.823 351.554C229.248 314.099 257.877 297.662 257.877 297.662C267.372 292.61 288.525 288.836 311.229 286.073C348.546 281.561 390.039 279.812 390.039 279.812Z" fill="#F7D3BC"/>
<path d="M308.733 275.429C280.035 260.948 272.289 222.953 272.289 222.953C283.137 219.518 292.632 215.276 300.987 210.425V210.359C324.429 196.751 338.913 178.022 347.736 157.343C352.923 145.286 355.212 132.353 358.11 119.687C358.446 118.205 358.851 116.72 359.322 115.307C374.208 71.321 448.782 68.558 448.782 68.558C477.816 103.991 524.97 122.516 554.274 137.201C578.997 149.528 589.032 171.152 592.938 189.476C669.126 192.44 765.723 176.003 774.888 181.796C784.182 187.724 788.361 374.657 774.888 378.833C761.415 383.075 586.137 358.019 586.137 358.019C556.698 446.801 425.205 445.118 399.54 443.972C412.137 439.055 422.916 433.667 430.125 429.02C457.269 411.305 456.6 382.676 449.055 370.076C441.444 357.413 419.952 354.92 407.559 356.198C428.172 343.871 436.053 329.183 433.023 310.256C427.971 278.729 401.361 279.269 390.042 279.809C390.042 279.809 348.549 281.558 311.229 286.073C310.35 282.638 309.546 279.137 308.736 275.498V275.429H308.733Z" fill="#F7D3BC"/>
<path d="M283.203 386.444C299.91 387.992 321.468 384.965 348.411 378.092C374.208 371.489 393.747 364.349 407.556 356.198C419.949 354.917 441.441 357.41 449.052 370.076C456.597 382.673 457.269 411.302 430.122 429.02C422.916 433.667 412.137 439.055 399.537 443.972C364.71 457.379 316.074 466.943 290.745 447.14C256.188 420.194 283.134 386.849 283.134 386.849L283.203 386.444V386.444Z" fill="#F7D3BC"/>
<path d="M162.729 288.935C252.054 285.701 301.164 276.272 304.53 275.597C293.535 270.047 285.636 261.05 280.047 252.056C212.805 268.223 67.6798 293.189 17.0128 223.439C16.8388 223.865 15.2038 228.032 12.5758 234.746C7.56876 276.857 71.6818 292.247 162.729 288.935Z" fill="#EFAE8D"/>
<path d="M302.316 187.526L304.251 162.371C304.251 162.371 124.248 166.232 61.0378 134.381C82.8508 166.916 165.402 176.585 302.316 187.526Z" fill="#EFAE8D"/>
<path d="M499.182 405.176C480.153 410.207 462.648 412.361 446.625 412.328C442.92 418.361 437.577 424.136 430.017 429.05C422.811 433.766 412.032 439.154 399.435 444.008C425.1 445.22 556.593 446.837 586.098 358.121C586.098 358.121 761.376 383.114 774.849 378.935C778.785 377.699 781.2 360.806 782.43 337.439C773.922 343.076 762.672 346.136 747.864 345.116C674.328 340.064 607.524 322.097 607.524 322.097L592.929 305.255C592.929 305.258 577.776 384.41 499.182 405.176V405.176Z" fill="#EFAE8D"/>
<path d="M422.325 356.555C448.092 430.043 337.608 447.626 293.361 449.003C319.374 466.253 365.85 457.028 399.432 444.011C412.029 439.157 422.808 433.769 430.014 429.053C457.164 411.41 456.555 382.781 448.944 370.109C443.961 361.787 432.864 357.896 422.325 356.555Z" fill="#EFAE8D"/>
<path d="M408.423 281.279C417.459 374.786 287.691 371.543 249.735 371.312C257.385 380.252 268.374 385.16 283.167 386.483C299.874 388.028 321.426 385.001 348.306 378.128C374.106 371.531 393.642 364.451 407.448 356.234C428.13 343.973 436.011 329.288 432.978 310.364C429.942 291.344 419.067 284.009 408.423 281.279Z" fill="#EFAE8D"/>
<path d="M461.175 126.221C520.959 181.796 553.467 154.145 585.465 234.002C585.465 234.002 556.557 270.776 591.639 299.123C591.639 299.123 582.381 274.697 596.694 260.381C611.01 246.065 607.638 214.634 607.638 214.634C607.638 214.634 673.599 214.916 724.122 211.55C754.836 209.504 771.357 209.819 782.43 215.366C780.936 196.55 778.914 183.413 776.559 181.907C767.397 176.114 670.8 192.551 594.612 189.587C590.703 171.263 580.665 149.639 555.945 137.312C526.641 122.624 479.487 104.036 450.456 68.5999C450.456 68.5999 438.291 69.0528 422.811 72.4908C430.854 90.4698 442.953 109.283 461.175 126.221Z" fill="#EFAE8D"/>
<path d="M280.806 242.54C280.806 242.54 378.915 286.205 403.278 166.634C403.278 166.634 427.407 268.037 348.489 281.018C297.966 289.328 280.806 242.54 280.806 242.54V242.54Z" fill="#EFAE8D"/>
<path d="M390.048 284.891C417.132 283.937 438.357 307.868 424.269 334.142C412.8 355.529 379.47 364.109 358.698 370.079C321.63 380.735 237.618 399.509 242.583 333.167C245.511 294.026 288.87 293.681 318.342 290.327C342.144 287.618 366.117 285.926 390.048 284.891C396.525 284.609 396.561 274.505 390.048 274.787C350.55 276.5 292.62 272.915 257.133 292.493C223.569 311.009 225.369 364.769 257.376 384.071C279.465 397.391 309.912 391.634 333.501 386.714C362.925 380.573 402.99 372.059 425.1 349.241C455.748 317.612 431.283 273.338 390.048 274.79C383.565 275.012 383.535 285.119 390.048 284.891V284.891Z" fill="black"/>
<path d="M306.042 210.419C305.706 193.868 306.453 177.401 308.214 160.94C308.904 154.481 298.794 154.532 298.11 160.94C296.352 177.401 295.602 193.868 295.938 210.419C296.07 216.911 306.174 216.935 306.042 210.419Z" fill="black"/>
<path d="M316.071 284.762C315.204 281.249 314.382 277.727 313.611 274.19C312.225 267.839 302.481 270.527 303.867 276.875C304.638 280.409 305.46 283.934 306.327 287.447C307.887 293.756 317.634 291.083 316.071 284.762Z" fill="black"/>
<path d="M300.879 203.042C243.954 202.994 186.951 201.557 130.275 196.1C94.6318 192.668 3.12877 180.737 11.5438 243.983C18.1768 293.834 101.973 293.936 137.637 294.356C194.535 295.025 254.073 291.506 310.098 280.397C316.47 279.134 313.773 269.393 307.413 270.653C271.506 277.775 234.378 280.319 197.91 282.413C159.975 284.591 30.2878 299.48 21.8578 242.486C12.5158 179.324 149.778 208.58 183.621 210.32C222.657 212.327 261.795 213.113 300.882 213.146C307.38 213.152 307.389 203.045 300.879 203.042V203.042Z" fill="black"/>
<path d="M359.361 110.24C283.365 103.802 210.09 89.645 134.964 78.167C104.706 73.544 50.7238 67.466 49.3198 111.56C48.3718 141.284 76.3348 155.63 100.884 163.697C164.145 184.487 235.71 185.867 301.434 191.171C307.917 191.693 307.881 181.586 301.434 181.067C245.223 176.531 188.019 173.165 132.726 161.501C106.893 156.05 58.0888 146.453 59.4238 111.557C61.4008 59.9541 172.437 95.7139 200.649 101.18C252.948 111.317 306.336 115.847 359.358 120.341C365.841 120.893 365.802 110.786 359.361 110.24V110.24Z" fill="black"/>
<path d="M396.75 170.135C408.369 219.098 452.913 239.672 499.068 247.322C505.428 248.375 508.164 238.64 501.753 237.578C459.135 230.516 417.306 213.011 406.494 167.447C404.991 161.123 395.247 163.802 396.75 170.135Z" fill="black"/>
<path d="M398.451 176.873C401.628 196.433 400.095 218.783 392.229 236.924C375.426 275.675 321.504 290.768 293.193 255.644C288.285 249.554 278.307 235.562 278.673 227.252C278.985 220.136 282.81 224.048 293.868 219.869C319.899 210.029 341.445 184.886 352.101 159.896C358.875 144.011 358.773 124.613 367.392 109.673C376.671 93.5898 394.971 85.1298 411.987 79.9878C420.681 77.3598 435.318 71.9507 444.324 73.8887C454.092 75.9917 464.16 91.5408 473.694 98.6508C500.232 118.436 532.467 127.487 559.362 145.949C583.602 162.59 593.124 193.94 589.656 222.245C588.867 228.683 598.98 228.626 599.76 222.245C603.213 194.045 594.126 161.759 572.112 142.973C553.98 127.502 528.747 120.044 508.071 108.557C493.068 100.22 478.467 90.7878 465.792 79.1508C460.095 73.9218 456.027 66.0648 448.761 63.4788C428.898 56.4138 387.147 76.3067 372.642 88.4267C356.442 101.963 354.222 117.938 348.885 137.393C337.653 178.331 310.596 204.059 270.951 218.075C268.269 219.023 266.805 221.456 267.423 224.291C276.609 266.414 312.111 295.313 355.656 282.251C401.958 268.361 415.227 217.532 408.189 174.191C407.157 167.783 397.419 170.501 398.451 176.873V176.873Z" fill="black"/>
<path d="M399.51 449.006C477.567 452.249 578.325 430.724 595.38 341.468C596.595 335.114 586.857 332.393 585.636 338.783C569.454 423.476 473.016 441.956 399.51 438.902C393.006 438.632 393.018 448.736 399.51 449.006V449.006Z" fill="black"/>
<path d="M584.811 362.918C634.449 369.989 684.201 376.922 734.1 381.881C744.978 382.961 768.759 389.66 778.398 382.616C788.337 375.353 786.885 349.1 787.479 338.987C789.399 306.368 788.895 273.461 787.383 240.842C786.702 226.163 790.005 195.587 781.074 182.513C772.416 169.835 750.801 176.012 737.532 177.065C688.536 180.95 639.738 185.948 590.508 184.349C584.004 184.139 584.01 194.243 590.508 194.453C631.302 195.779 671.916 192.818 712.536 189.32C727.008 188.075 765.222 178.625 772.827 190.907C781.101 204.266 777.276 238.655 777.789 253.838C778.677 280.265 778.926 306.803 777.666 333.221C777.021 346.775 779.154 369.062 767.826 374.267C755.22 380.06 722.412 370.583 709.269 369.074C668.604 364.4 628.02 358.949 587.496 353.177C581.136 352.268 578.388 362.003 584.811 362.918Z" fill="black"/>
<path d="M278.799 384.284C262.632 405.692 265.893 434.045 287.166 450.692C315.192 472.616 358.926 462.971 389.541 452.849C418.065 443.417 453.909 428.678 458.166 394.7C462.207 362.444 436.158 349.916 407.532 351.119C401.055 351.392 401.019 361.499 407.532 361.223C425.148 360.482 442.362 368.297 448.482 387.035C453.735 403.115 435.138 420.047 422.85 427.514C407.007 437.138 388.23 443.507 370.338 447.92C350.226 452.879 325.059 457.412 305.187 448.883C278.694 437.513 271.338 410.813 287.52 389.384C291.444 384.194 282.675 379.151 278.799 384.284V384.284Z" fill="black"/>
</svg>
