<svg width="800" height="526" viewBox="0 0 800 526" fill="none" xmlns="http://www.w3.org/2000/svg">
<path d="M229.036 184.503C239.14 140.316 314.518 151.701 352.378 162.207C355.747 163.149 358.981 164.091 362.143 165.036C359.854 175.341 357.562 185.649 353.386 195.348C346.111 212.325 335.131 227.952 318.424 240.549C314.449 240.549 310.405 240.549 306.502 240.48C280.702 240.279 262.447 242.907 249.913 248.7C249.916 248.703 217.921 233.208 229.036 184.503V184.503Z" fill="#F7D3BC"/>
<path d="M277.942 260.961C294.178 255.774 307.516 248.838 318.43 240.552C335.137 227.955 346.117 212.328 353.392 195.351C357.565 185.652 359.86 175.344 362.149 165.039C362.689 162.612 363.229 160.122 363.769 157.695C374.95 109.53 454.438 106.503 454.438 106.503C483.472 141.936 530.692 160.527 559.927 175.212C584.653 187.539 594.688 209.163 598.594 227.487C674.782 230.451 771.379 214.014 780.541 219.807C789.841 225.735 794.014 412.668 780.541 416.844C767.068 421.086 591.79 396.03 591.79 396.03C562.354 484.812 430.861 483.129 405.196 481.983C417.793 477.066 428.569 471.678 435.778 467.031C462.925 449.313 462.25 420.681 454.708 408.087C447.094 395.421 425.674 392.931 413.278 394.14C433.891 381.882 441.706 367.194 438.673 348.264C433.621 316.806 407.08 317.28 395.764 317.817C414.22 310.14 424.123 299.157 423.112 280.431C422.503 268.509 417.25 260.154 408.895 254.295C405.325 277.263 394.348 303.537 364.234 314.112C293.839 338.769 277.942 260.961 277.942 260.961V260.961Z" fill="#F7D3BC"/>
<path d="M395.761 317.817C407.077 317.28 433.615 316.806 438.67 348.264C441.703 367.194 433.888 381.879 413.275 394.14H413.209C399.4 402.36 379.864 409.5 354.064 416.103C327.118 422.973 305.56 426.003 288.856 424.455C265.549 422.367 251.602 411.321 245.473 389.562C234.895 352.107 263.524 335.67 263.524 335.67C277.471 338.634 296.266 338.769 321.391 334.593C352.579 329.472 378.04 325.164 395.692 317.817H395.761V317.817Z" fill="#F7D3BC"/>
<path d="M249.916 248.703C262.447 242.91 280.702 240.282 306.505 240.483C310.408 240.552 314.452 240.552 318.427 240.552C307.513 248.838 294.175 255.774 277.939 260.961C277.939 260.961 293.836 338.769 364.231 314.112C394.345 303.537 405.322 277.263 408.892 254.295C417.247 260.154 422.5 268.509 423.109 280.431C424.12 299.157 414.214 310.14 395.761 317.817H395.692C378.043 325.161 352.579 329.472 321.391 334.593C296.266 338.769 277.471 338.634 263.524 335.67C234.223 329.403 226.474 310.206 226.474 290.199C226.474 270.258 232.81 256.584 249.916 248.703V248.703Z" fill="#F7D3BC"/>
<path d="M288.787 424.857L288.856 424.452C305.56 426 327.118 422.973 354.064 416.1C379.861 409.497 399.4 402.357 413.209 394.137H413.275C425.671 392.925 447.091 395.415 454.705 408.084C462.247 420.678 462.922 449.307 435.775 467.028C428.566 471.675 417.79 477.063 405.193 481.98C370.366 495.387 321.73 504.951 296.401 485.148C261.841 458.202 288.787 424.857 288.787 424.857V424.857Z" fill="#F7D3BC"/>
<path d="M505.06 443.874C486.031 448.908 468.526 451.059 452.5 451.026C448.795 457.059 443.452 462.834 435.892 467.748C428.686 472.464 417.907 477.852 405.31 482.709C430.975 483.918 562.468 485.538 591.973 396.822C591.973 396.822 767.251 421.812 780.724 417.636C784.66 416.4 787.075 399.507 788.305 376.14C779.797 381.777 768.547 384.837 753.739 383.817C680.203 378.765 613.399 360.798 613.399 360.798L598.804 343.956C598.804 343.956 583.651 423.108 505.06 443.874V443.874Z" fill="#EFAE8D"/>
<path d="M428.203 395.253C453.97 468.741 343.486 486.324 299.239 487.701C325.252 504.948 371.728 495.726 405.31 482.709C417.907 477.852 428.686 472.467 435.892 467.748C463.042 450.105 462.433 421.476 454.822 408.804C449.836 400.485 438.742 396.594 428.203 395.253V395.253Z" fill="#EFAE8D"/>
<path d="M414.298 319.977C423.334 413.484 293.569 410.241 255.61 410.01C263.26 418.95 274.249 423.858 289.042 425.181C305.749 426.726 327.301 423.702 354.181 416.826C379.981 410.229 399.517 403.149 413.326 394.932C434.008 382.671 441.889 367.986 438.856 349.059C435.817 330.042 424.942 322.707 414.298 319.977V319.977Z" fill="#EFAE8D"/>
<path d="M423.295 281.223C422.452 265.995 414.166 256.671 401.467 250.857C402.601 319.221 283.657 324.57 238.741 324.135C244.417 329.667 252.466 333.99 263.713 336.39C277.591 339.357 296.386 339.495 321.511 335.319C352.699 330.195 378.166 325.95 395.815 318.609C414.34 310.998 424.309 300.018 423.295 281.223Z" fill="#EFAE8D"/>
<path d="M467.053 164.919C526.837 220.494 559.345 192.843 591.343 272.7C591.343 272.7 562.435 309.474 597.517 337.821C597.517 337.821 588.259 313.395 602.572 299.079C616.888 284.763 613.516 253.332 613.516 253.332C613.516 253.332 679.477 253.614 730 250.248C760.714 248.202 777.235 248.517 788.308 254.064C786.814 235.245 784.792 222.108 782.437 220.605C773.278 214.812 676.678 231.249 600.49 228.285C596.581 209.961 586.543 188.337 561.823 176.01C532.519 161.325 485.365 142.734 456.334 107.298C456.334 107.298 444.166 107.751 428.689 111.189C436.732 129.168 448.831 147.981 467.053 164.919V164.919Z" fill="#EFAE8D"/>
<path d="M286.684 281.238C286.684 281.238 384.793 324.903 409.156 205.332C409.156 205.332 433.285 306.735 354.367 319.716C303.844 328.026 286.684 281.238 286.684 281.238Z" fill="#EFAE8D"/>
<path d="M402.4 208.134C414.046 257.091 458.548 277.668 504.718 285.321C511.078 286.374 513.814 276.639 507.403 275.577C464.773 268.512 422.98 251.004 412.144 205.446C410.638 199.125 400.891 201.801 402.4 208.134V208.134Z" fill="#920006"/>
<path d="M404.101 214.875C407.278 234.435 405.748 256.785 397.879 274.926C381.076 313.674 327.151 328.773 298.846 293.646C293.938 287.556 283.963 273.564 284.329 265.254C284.644 258.138 288.463 262.053 299.521 257.871C325.549 248.031 347.092 222.888 357.751 197.898C364.525 182.013 364.426 162.612 373.045 147.672C382.324 131.589 400.624 123.129 417.643 117.987C426.337 115.359 440.971 109.95 449.98 111.888C459.745 113.991 469.816 129.54 479.35 136.65C505.888 156.435 538.123 165.486 565.018 183.948C589.258 200.589 598.78 231.939 595.312 260.244C594.523 266.682 604.636 266.625 605.416 260.244C608.869 232.044 599.782 199.758 577.768 180.972C559.636 165.501 534.406 158.043 513.73 146.556C498.727 138.219 484.126 128.787 471.448 117.15C465.751 111.921 461.683 104.064 454.417 101.478C434.554 94.4159 392.806 114.306 378.301 126.426C362.098 139.962 359.881 155.937 354.544 175.392C343.312 216.327 316.255 242.055 276.613 256.074C273.931 257.022 272.467 259.455 273.085 262.29C282.268 304.413 317.764 333.312 361.312 320.25C407.617 306.36 420.886 255.534 413.845 212.19C412.807 205.785 403.066 208.503 404.101 214.875V214.875Z" fill="#920006"/>
<path d="M405.166 487.005C483.223 490.248 583.975 468.723 601.03 379.467C602.245 373.113 592.507 370.392 591.286 376.782C575.104 461.472 478.672 479.955 405.166 476.901C398.662 476.631 398.677 486.738 405.166 487.005V487.005Z" fill="#920006"/>
<path d="M590.467 400.917C640.102 407.988 689.854 414.921 739.75 419.88C750.628 420.96 774.409 427.656 784.048 420.615C793.987 413.352 792.535 387.099 793.129 376.986C795.049 344.367 794.545 311.46 793.033 278.841C792.352 264.162 795.655 233.586 786.724 220.512C778.066 207.834 756.451 214.011 743.182 215.064C694.186 218.949 645.388 223.947 596.158 222.348C589.654 222.138 589.66 232.242 596.158 232.452C636.952 233.778 677.566 230.817 718.186 227.319C732.658 226.074 770.872 216.624 778.477 228.906C786.751 242.265 782.926 276.654 783.439 291.837C784.327 318.264 784.576 344.802 783.316 371.22C782.671 384.774 784.804 407.061 773.476 412.266C760.87 418.059 728.062 408.582 714.922 407.073C674.26 402.399 633.676 396.948 593.155 391.176C586.792 390.27 584.044 400.002 590.467 400.917V400.917Z" fill="#920006"/>
<path d="M318.415 235.527C284.926 235.323 233.533 233.028 223.171 274.08C216.736 299.571 225.877 326.364 250.699 337.005C290.308 353.982 358.543 338.916 396.259 323.016C427.069 310.029 441.205 275.418 412.468 250.71C407.56 246.489 400.381 253.605 405.322 257.856C446.647 293.391 388.699 316.581 360.874 322.455C329.557 329.064 290.692 339.675 259.171 329.337C236.773 321.99 228.196 301.161 232.654 279.006C240.214 241.416 289.009 245.454 318.418 245.634C324.919 245.67 324.925 235.566 318.415 235.527V235.527Z" fill="#920006"/>
<path d="M261.001 331.299C236.686 346.446 232.282 380.013 245.773 404.01C265.363 438.849 311.884 430.884 344.362 423.612C376.804 416.349 436.117 403.944 443.587 363.57C449.563 331.278 425.488 311.742 395.698 312.789C389.215 313.017 389.185 323.124 395.698 322.893C428.632 321.735 446.557 355.059 423.607 380.094C404.539 400.893 367.951 408.09 341.677 413.868C317.557 419.172 280.381 427.683 260.395 407.241C242.746 389.19 244.012 353.784 266.101 340.023C271.609 336.594 266.542 327.849 261.001 331.299Z" fill="#920006"/>
<path d="M252.49 244.341C221.746 228.423 225.145 174.186 256.753 162.168C288.784 149.988 329.299 160.695 360.775 169.92C367.027 171.753 369.697 162.003 363.46 160.176C327.535 149.646 259.9 131.598 231.736 167.328C212.971 191.133 219.187 238.461 247.393 253.068C253.156 256.05 258.274 247.335 252.49 244.341V244.341Z" fill="#920006"/>
<path d="M284.449 422.283C268.282 443.691 271.543 472.047 292.816 488.691C320.842 510.615 364.576 500.97 395.191 490.848C423.715 481.416 459.559 466.677 463.816 432.699C467.857 400.446 441.811 387.912 413.191 389.118C406.711 389.391 406.678 399.498 413.191 399.222C430.804 398.481 448.015 406.302 454.135 425.037C459.388 441.117 440.791 458.049 428.503 465.516C412.66 475.14 393.883 481.509 375.991 485.922C355.879 490.881 330.712 495.414 310.84 486.885C284.344 475.515 276.991 448.815 293.173 427.383C297.094 422.193 288.325 417.153 284.449 422.283V422.283Z" fill="#920006"/>
</svg>
