<svg width="800" height="526" viewBox="0 0 800 526" fill="none" xmlns="http://www.w3.org/2000/svg">
<path d="M592.214 395.766C559.478 494.253 401.174 481.455 401.174 481.455C401.174 481.455 352.337 499.98 294.266 512.577C236.132 525.24 185.474 526.995 175.505 502.473C164.591 475.527 188.168 460.371 235.187 451.143C281.267 442.047 355.634 422.244 358.529 421.437C354.959 415.641 351.188 409.111 347.348 401.899C338.048 384.322 328.484 362.559 321.074 337.095C318.854 329.418 316.766 321.472 315.011 313.117C310.565 292.573 307.601 270 307.265 245.688C307.064 238.479 307.13 231.135 307.466 223.656C137.981 210.117 51.7554 198.534 60.9864 143.091C69.0024 95.1274 161.222 126.921 230.267 137.907C298.304 148.683 406.76 156.09 409.994 156.294C411.542 150.57 412.958 147.129 412.958 147.129C412.958 147.129 335.624 122.482 344.45 60.9785C355.16 -12.8575 431.483 9.03335 431.483 9.03335C412.958 115.131 511.508 150.495 560.348 174.954C585.071 187.281 595.109 208.906 599.018 227.227C675.272 230.188 771.737 213.753 780.965 219.543C790.196 225.477 794.438 412.407 780.965 416.583C767.492 420.828 592.214 395.766 592.214 395.766Z" fill="#F7D3BC"/>
<path d="M23.1295 270.066C30.6745 226.281 87.9355 233.898 146.876 239.754C205.82 245.688 307.133 245.688 307.133 245.688H307.268C307.604 270.003 310.568 292.573 315.014 313.117C315.014 313.117 265.637 323.155 173.012 326.524C80.3875 329.893 15.5185 313.851 23.1295 270.066V270.066Z" fill="#F7D3BC"/>
<path d="M190.664 357.639C251.291 351.783 321.077 337.095 321.077 337.095C328.487 362.559 338.054 384.321 347.351 401.898C347.351 401.898 286.655 420.828 229.397 430.056C172.139 439.353 88.8085 446.088 87.1255 404.259C85.4395 362.427 130.037 363.573 190.664 357.639V357.639Z" fill="#F7D3BC"/>
<path d="M344.453 60.9785C343.718 66.1085 343.628 70.9563 343.997 75.5823C347.369 55.2153 378.71 25.1705 410.195 32.4815C410.195 32.4815 404.3 108.264 464.087 163.839C523.874 219.414 556.379 191.766 588.377 271.62C588.377 271.62 559.469 308.395 594.551 336.742C594.551 336.742 585.293 312.315 599.606 297.999C613.922 283.686 610.55 252.252 610.55 252.252C610.55 252.252 676.511 252.534 727.034 249.168C759.125 247.029 775.793 247.404 786.866 253.701C785.369 234.519 783.335 221.064 780.968 219.546C771.743 213.759 675.275 230.191 599.021 227.23C595.112 208.909 585.074 187.284 560.351 174.957C511.514 150.498 412.961 115.131 431.486 9.03628C431.486 9.03328 355.163 -12.8605 344.453 60.9785V60.9785Z" fill="#EFAE8D"/>
<path d="M753.977 382.767C680.441 377.715 613.637 359.748 613.637 359.748L599.043 342.906C599.043 342.906 583.889 422.058 505.295 442.83C426.701 463.602 373.533 436.182 347.352 401.895C351.189 409.107 354.962 415.638 358.532 421.434L384.705 456.868C384.705 456.868 357.654 478.195 281.313 492.793C214.335 505.6 182.22 501.975 174.651 481.563C172.143 487.617 172.287 494.52 175.509 502.473C185.478 526.995 236.136 525.24 294.27 512.577C352.338 499.98 401.178 481.455 401.178 481.455C401.178 481.455 559.481 494.253 592.217 395.766C592.217 395.766 767.496 420.828 780.969 416.583C784.911 415.362 787.322 398.464 788.552 375.085C780.041 380.731 768.788 383.787 753.977 382.767V382.767Z" fill="#EFAE8D"/>
<path d="M336.905 380.388C336.905 380.388 159.722 449.121 88.1214 392.952C87.3774 396.354 86.9544 400.038 87.1254 404.259C88.8084 446.088 172.139 439.353 229.397 430.056C286.655 420.828 347.351 401.898 347.351 401.898C343.865 395.307 340.343 388.131 336.908 380.388H336.905V380.388Z" fill="#EFAE8D"/>
<path d="M25.7995 261C24.6655 263.769 23.7055 266.718 23.1295 270.066C15.5185 313.851 80.3875 329.893 173.012 326.524C265.637 323.155 315.014 313.117 315.014 313.117C313.016 303.895 311.381 294.196 310.085 284.179C259.328 298.078 82.7815 339.444 25.7995 261V261Z" fill="#EFAE8D"/>
<path d="M307.469 223.656L309.404 198.501C309.404 198.501 129.401 202.362 66.1914 170.511C88.0074 203.046 170.555 212.715 307.469 223.656V223.656Z" fill="#EFAE8D"/>
<path d="M605.802 259.969C611.319 214.912 587.478 182.392 548.457 163.585C483.489 132.274 424.575 92.0047 436.374 10.3837C436.764 7.68668 435.747 4.95962 432.846 4.16762C400.752 -4.57438 362.781 3.2944 346.929 34.9894C323.133 82.5694 354.678 126.106 397.536 146.251C401.346 148.042 408.255 149.209 411.21 151.867C404.043 145.423 409.302 146.416 405.141 154.993C399.069 167.512 399.876 188.016 401.685 201.189C408.969 254.206 457.319 276.787 505.103 285.049C511.463 286.15 514.197 276.412 507.789 275.305C462.993 267.559 416.493 247.191 411.261 196.677C409.611 180.75 411.918 163.408 417.852 148.477C418.896 145.849 416.685 143.044 414.324 142.261C367.671 126.823 316.619 63.3066 370.253 22.1676C379.874 14.7876 414.897 2.75742 426.861 13.1134C426.876 13.1284 425.457 56.9586 429.054 68.9196C441.825 111.412 478.35 138.795 515.886 158.739C539.793 171.444 570.072 179.707 584.829 204.124C594.603 220.297 597.996 241.246 595.704 259.966C594.909 266.41 605.022 266.353 605.802 259.969Z" fill="#920006"/>
<path d="M386.234 450.906C325.718 384.93 306.176 284.643 314.456 198.498C315.077 192.03 304.97 192.072 304.352 198.498C295.805 287.409 316.793 390.135 379.088 458.052C383.492 462.855 390.623 455.694 386.234 450.906V450.906Z" fill="#920006"/>
<path d="M410.033 151.233C347.615 146.976 284.513 142.305 222.851 131.532C186.035 125.1 90.8964 88.0384 61.8594 128.118C41.1864 156.654 67.5984 185.076 92.9964 196.11C157.328 224.061 238.94 223.203 307.472 228.735C313.955 229.257 313.919 219.15 307.472 218.631C244.91 213.582 179.285 211.338 118.544 194.211C101.639 189.444 78.2694 182.649 69.2094 165.852C53.0874 135.96 85.5924 121.968 110.918 122.601C167.321 124.008 224.054 143.103 280.262 149.598C323.399 154.581 366.71 158.385 410.033 161.34C416.525 161.781 416.498 151.674 410.033 151.233V151.233Z" fill="#920006"/>
<path d="M307.121 240.601C250.196 240.553 193.193 239.115 136.517 233.658C100.874 230.226 9.37145 218.295 17.7864 281.542C24.4194 331.393 108.215 331.495 143.879 331.915C200.777 332.584 260.315 329.064 316.34 317.955C322.712 316.692 320.015 306.952 313.655 308.212C277.748 315.334 240.62 317.877 204.152 319.971C166.217 322.149 36.5304 337.038 28.1004 280.047C18.7584 216.885 156.02 246.142 189.863 247.882C228.899 249.892 268.037 250.674 307.124 250.707C313.622 250.71 313.634 240.607 307.121 240.601V240.601Z" fill="#920006"/>
<path d="M319.751 332.235C260.861 344.469 201.603 349.557 142.107 357.24C113.424 360.942 69.5455 374.641 83.9335 413.731C97.4365 450.418 160.854 443.011 190.062 440.245C243.837 435.157 297.152 422.658 348.713 406.77C354.908 404.862 352.265 395.104 346.028 397.027C311.138 407.779 275.472 416.733 239.55 423.216C206.433 429.192 122.007 448.489 98.0305 415.321C60.1615 362.935 196.49 362.353 219.458 359.368C253.964 354.886 288.369 349.057 322.44 341.98C328.8 340.657 326.105 330.915 319.751 332.235V332.235Z" fill="#920006"/>
<path d="M357.227 416.56C321.827 425.998 286.265 435.049 250.454 442.783C226.721 447.907 181.031 451.678 170.027 479.437C138.392 559.246 321.662 511.548 342.2 505.752C364.385 499.491 387.203 488.452 408.821 486.862C431.36 485.206 453.506 486.151 476.003 482.248C534.704 472.06 589.538 441.982 601.412 379.198C602.615 372.844 592.877 370.12 591.668 376.51C580.424 435.97 528.581 463.008 473.318 472.503C448.175 476.823 421.364 472.782 396.968 477.615C366.173 483.717 336.008 497.689 305.198 504.922C280.652 510.682 255.503 515.791 230.222 516.484C209.918 517.039 156.899 509.002 184.91 475.696C204.194 452.764 261.689 450.837 289.415 444.174C312.986 438.507 336.491 432.55 359.915 426.304C366.191 424.63 363.527 414.88 357.227 416.56V416.56Z" fill="#920006"/>
<path d="M590.84 400.647C640.478 407.718 690.23 414.651 740.129 419.61C751.007 420.69 774.788 427.389 784.427 420.345C794.366 413.082 792.914 386.829 793.508 376.716C795.428 344.097 794.924 311.19 793.412 278.571C792.731 263.892 796.034 233.316 787.103 220.242C778.445 207.564 756.831 213.741 743.562 214.791C694.566 218.676 645.767 223.674 596.537 222.075C590.033 221.865 590.039 231.969 596.537 232.179C637.331 233.502 677.946 230.544 718.566 227.046C733.038 225.798 771.251 216.351 778.856 228.633C787.13 241.992 783.305 276.381 783.818 291.564C784.706 317.991 784.956 344.529 783.696 370.947C783.051 384.501 785.184 406.788 773.856 411.993C761.25 417.786 728.441 408.309 715.298 406.8C674.633 402.129 634.046 396.675 593.525 390.903C587.168 389.997 584.42 399.732 590.84 400.647V400.647Z" fill="#920006"/>
</svg>
