<svg width="800" height="526" viewBox="0 0 800 526" fill="none" xmlns="http://www.w3.org/2000/svg">
<path d="M307.123 248.452C298.768 253.303 289.273 257.548 278.425 260.98C278.425 260.98 286.171 298.972 314.869 313.456V313.525C314.869 313.525 265.492 323.56 172.867 326.929C80.242 330.298 15.4389 314.335 22.9839 270.55C30.5949 226.765 87.8529 234.307 146.797 240.238C205.741 246.097 306.988 246.097 306.988 246.097H307.054C307.054 246.841 307.123 247.645 307.123 248.389V248.452V248.452Z" fill="#F7D3BC"/>
<path d="M307.123 248.386C307.123 247.642 307.054 246.838 307.054 246.094C306.919 238.954 307.054 231.613 307.324 224.137C137.971 210.595 51.8169 198.94 61.1139 143.572C69.1299 95.5417 161.284 127.405 230.332 138.316C271.357 144.853 326.929 150.106 365.461 153.337C364.99 154.753 364.585 156.235 364.249 157.717C361.351 170.38 359.062 183.313 353.875 195.373C345.046 216.049 330.565 234.778 307.123 248.386V248.386Z" fill="#F7D3BC"/>
<path d="M396.175 317.839C407.494 317.299 434.104 316.762 439.156 348.286C442.186 367.213 434.305 381.898 413.692 394.228C399.883 402.379 380.347 409.519 354.547 416.122C327.601 422.992 306.043 426.022 289.339 424.474C266.032 422.389 252.088 411.34 245.959 389.581C235.384 352.126 264.013 335.689 264.013 335.689C273.508 330.637 294.661 326.863 317.365 324.1C354.682 319.588 396.175 317.839 396.175 317.839Z" fill="#F7D3BC"/>
<path d="M314.869 313.456C286.171 298.975 278.425 260.98 278.425 260.98C289.273 257.545 298.768 253.303 307.123 248.452V248.386C330.565 234.778 345.049 216.049 353.872 195.37C359.059 183.313 361.348 170.38 364.246 157.714C364.582 156.232 364.987 154.747 365.458 153.334C380.344 109.348 454.918 106.585 454.918 106.585C483.952 142.018 531.106 160.543 560.41 175.228C585.133 187.555 595.168 209.179 599.074 227.503C675.262 230.467 771.859 214.03 781.024 219.823C790.318 225.751 794.497 412.684 781.024 416.86C767.551 421.102 592.273 396.046 592.273 396.046C562.834 484.828 431.341 483.145 405.676 481.999C418.273 477.082 429.052 471.694 436.261 467.047C463.405 449.332 462.736 420.703 455.191 408.103C447.58 395.44 426.088 392.947 413.695 394.225C434.308 381.898 442.189 367.21 439.159 348.283C434.107 316.756 407.497 317.296 396.178 317.836C396.178 317.836 354.685 319.585 317.365 324.1C316.486 320.665 315.682 317.164 314.872 313.525V313.456H314.869Z" fill="#F7D3BC"/>
<path d="M289.339 424.471C306.046 426.019 327.604 422.992 354.547 416.119C380.344 409.516 399.883 402.376 413.692 394.225C426.085 392.944 447.577 395.437 455.188 408.103C462.733 420.7 463.405 449.329 436.258 467.047C429.052 471.694 418.273 477.082 405.673 481.999C370.846 495.406 322.21 504.97 296.881 485.167C262.324 458.221 289.27 424.876 289.27 424.876L289.339 424.471V424.471Z" fill="#F7D3BC"/>
<path d="M168.865 326.962C258.19 323.728 307.3 314.299 310.666 313.624C299.671 308.074 291.772 299.077 286.183 290.083C218.941 306.25 73.8158 331.216 23.1488 261.466C22.9748 261.892 21.3398 266.059 18.7118 272.773C13.7048 314.884 77.8178 330.274 168.865 326.962Z" fill="#EFAE8D"/>
<path d="M308.452 225.553L310.387 200.398C310.387 200.398 130.384 204.259 67.1738 172.408C88.9868 204.943 171.538 214.612 308.452 225.553Z" fill="#EFAE8D"/>
<path d="M505.318 443.203C486.289 448.234 468.784 450.388 452.761 450.355C449.056 456.388 443.713 462.163 436.153 467.077C428.947 471.793 418.168 477.181 405.571 482.035C431.236 483.247 562.729 484.864 592.234 396.148C592.234 396.148 767.512 421.141 780.985 416.962C784.921 415.726 787.336 398.833 788.566 375.466C780.058 381.103 768.808 384.163 754 383.143C680.464 378.091 613.66 360.124 613.66 360.124L599.065 343.282C599.065 343.285 583.912 422.437 505.318 443.203V443.203Z" fill="#EFAE8D"/>
<path d="M428.461 394.582C454.228 468.07 343.744 485.653 299.497 487.03C325.51 504.28 371.986 495.055 405.568 482.038C418.165 477.184 428.944 471.796 436.15 467.08C463.3 449.437 462.691 420.808 455.08 408.136C450.097 399.814 439 395.923 428.461 394.582Z" fill="#EFAE8D"/>
<path d="M414.559 319.306C423.595 412.813 293.827 409.57 255.871 409.339C263.521 418.279 274.51 423.187 289.303 424.51C306.01 426.055 327.562 423.028 354.442 416.155C380.242 409.558 399.778 402.478 413.584 394.261C434.266 382 442.147 367.315 439.114 348.391C436.078 329.371 425.203 322.036 414.559 319.306Z" fill="#EFAE8D"/>
<path d="M467.311 164.248C527.095 219.823 559.603 192.172 591.601 272.029C591.601 272.029 562.693 308.803 597.775 337.15C597.775 337.15 588.517 312.724 602.83 298.408C617.146 284.092 613.774 252.661 613.774 252.661C613.774 252.661 679.735 252.943 730.258 249.577C760.972 247.531 777.493 247.846 788.566 253.393C787.072 234.577 785.05 221.44 782.695 219.934C773.533 214.141 676.936 230.578 600.748 227.614C596.839 209.29 586.801 187.666 562.081 175.339C532.777 160.651 485.623 142.063 456.592 106.627C456.592 106.627 444.427 107.08 428.947 110.518C436.99 128.497 449.089 147.31 467.311 164.248Z" fill="#EFAE8D"/>
<path d="M286.942 280.567C286.942 280.567 385.051 324.232 409.414 204.661C409.414 204.661 433.543 306.064 354.625 319.045C304.102 327.355 286.942 280.567 286.942 280.567V280.567Z" fill="#EFAE8D"/>
<path d="M396.184 322.918C423.268 321.964 444.493 345.895 430.405 372.169C418.936 393.556 385.606 402.136 364.834 408.106C327.766 418.762 243.754 437.536 248.719 371.194C251.647 332.053 295.006 331.708 324.478 328.354C348.28 325.645 372.253 323.953 396.184 322.918C402.661 322.636 402.697 312.532 396.184 312.814C356.686 314.527 298.756 310.942 263.269 330.52C229.705 349.036 231.505 402.796 263.512 422.098C285.601 435.418 316.048 429.661 339.637 424.741C369.061 418.6 409.126 410.086 431.236 387.268C461.884 355.639 437.419 311.365 396.184 312.817C389.701 313.039 389.671 323.146 396.184 322.918V322.918Z" fill="#004C92"/>
<path d="M312.178 248.446C311.842 231.895 312.589 215.428 314.35 198.967C315.04 192.508 304.93 192.559 304.246 198.967C302.488 215.428 301.738 231.895 302.074 248.446C302.206 254.938 312.31 254.962 312.178 248.446Z" fill="#004C92"/>
<path d="M322.207 322.789C321.34 319.276 320.518 315.754 319.747 312.217C318.361 305.866 308.617 308.554 310.003 314.902C310.774 318.436 311.596 321.961 312.463 325.474C314.023 331.783 323.77 329.11 322.207 322.789Z" fill="#004C92"/>
<path d="M307.015 241.069C250.09 241.021 193.087 239.584 136.411 234.127C100.768 230.695 9.26488 218.764 17.6799 282.01C24.3129 331.861 108.109 331.963 143.773 332.383C200.671 333.052 260.209 329.533 316.234 318.424C322.606 317.161 319.909 307.42 313.549 308.68C277.642 315.802 240.514 318.346 204.046 320.44C166.111 322.618 36.4239 337.507 27.9939 280.513C18.6519 217.351 155.914 246.607 189.757 248.347C228.793 250.354 267.931 251.14 307.018 251.173C313.516 251.179 313.525 241.072 307.015 241.069V241.069Z" fill="#004C92"/>
<path d="M365.497 148.267C289.501 141.829 216.226 127.672 141.1 116.194C110.842 111.571 56.8598 105.493 55.4558 149.587C54.5078 179.311 82.4708 193.657 107.02 201.724C170.281 222.514 241.846 223.894 307.57 229.198C314.053 229.72 314.017 219.613 307.57 219.094C251.359 214.558 194.155 211.192 138.862 199.528C113.029 194.077 64.2248 184.48 65.5598 149.584C67.5368 97.981 178.573 133.741 206.785 139.207C259.084 149.344 312.472 153.874 365.494 158.368C371.977 158.92 371.938 148.813 365.497 148.267V148.267Z" fill="#004C92"/>
<path d="M402.886 208.162C414.505 257.125 459.049 277.699 505.204 285.349C511.564 286.402 514.3 276.667 507.889 275.605C465.271 268.543 423.442 251.038 412.63 205.474C411.127 199.15 401.383 201.829 402.886 208.162Z" fill="#004C92"/>
<path d="M404.587 214.9C407.764 234.46 406.231 256.81 398.365 274.951C381.562 313.702 327.64 328.795 299.329 293.671C294.421 287.581 284.443 273.589 284.809 265.279C285.121 258.163 288.946 262.075 300.004 257.896C326.035 248.056 347.581 222.913 358.237 197.923C365.011 182.038 364.909 162.64 373.528 147.7C382.807 131.617 401.107 123.157 418.123 118.015C426.817 115.387 441.454 109.978 450.46 111.916C460.228 114.019 470.296 129.568 479.83 136.678C506.368 156.463 538.603 165.514 565.498 183.976C589.738 200.617 599.26 231.967 595.792 260.272C595.003 266.71 605.116 266.653 605.896 260.272C609.349 232.072 600.262 199.786 578.248 181C560.116 165.529 534.883 158.071 514.207 146.584C499.204 138.247 484.603 128.815 471.928 117.178C466.231 111.949 462.163 104.092 454.897 101.506C435.034 94.4408 393.283 114.334 378.778 126.454C362.578 139.99 360.358 155.965 355.021 175.42C343.789 216.358 316.732 242.086 277.087 256.102C274.405 257.05 272.941 259.483 273.559 262.318C282.745 304.441 318.247 333.34 361.792 320.278C408.094 306.388 421.363 255.559 414.325 212.218C413.293 205.81 403.555 208.528 404.587 214.9V214.9Z" fill="#004C92"/>
<path d="M405.646 487.033C483.703 490.276 584.461 468.751 601.516 379.495C602.731 373.141 592.993 370.42 591.772 376.81C575.59 461.503 479.152 479.983 405.646 476.929C399.142 476.659 399.154 486.763 405.646 487.033V487.033Z" fill="#004C92"/>
<path d="M590.947 400.945C640.585 408.016 690.337 414.949 740.236 419.908C751.114 420.988 774.895 427.687 784.534 420.643C794.473 413.38 793.021 387.127 793.615 377.014C795.535 344.395 795.031 311.488 793.519 278.869C792.838 264.19 796.141 233.614 787.21 220.54C778.552 207.862 756.937 214.039 743.668 215.092C694.672 218.977 645.874 223.975 596.644 222.376C590.14 222.166 590.146 232.27 596.644 232.48C637.438 233.806 678.052 230.845 718.672 227.347C733.144 226.102 771.358 216.652 778.963 228.934C787.237 242.293 783.412 276.682 783.925 291.865C784.813 318.292 785.062 344.83 783.802 371.248C783.157 384.802 785.29 407.089 773.962 412.294C761.356 418.087 728.548 408.61 715.405 407.101C674.74 402.427 634.156 396.976 593.632 391.204C587.272 390.295 584.524 400.03 590.947 400.945Z" fill="#004C92"/>
<path d="M284.935 422.311C268.768 443.719 272.029 472.072 293.302 488.719C321.328 510.643 365.062 500.998 395.677 490.876C424.201 481.444 460.045 466.705 464.302 432.727C468.343 400.471 442.294 387.943 413.668 389.146C407.191 389.419 407.155 399.526 413.668 399.25C431.284 398.509 448.498 406.324 454.618 425.062C459.871 441.142 441.274 458.074 428.986 465.541C413.143 475.165 394.366 481.534 376.474 485.947C356.362 490.906 331.195 495.439 311.323 486.91C284.83 475.54 277.474 448.84 293.656 427.411C297.58 422.221 288.811 417.178 284.935 422.311V422.311Z" fill="#004C92"/>
</svg>
